<?xml version="1.0" standalone="no"?>
<svg viewBox="0 0 200 200" xmlns="http://www.w3.org/2000/svg">
  <path fill="#BAE6FF" d="M37.5,-62.7C48.1,-51.5,55.8,-40.3,64.4,-27.6C73,-15,82.4,-0.9,79,10.2C75.5,21.2,59.3,29.2,48,40.9C36.8,52.5,30.6,67.7,20.2,72.5C9.8,77.3,-4.8,71.6,-15.8,63.8C-26.8,56,-34.3,46.1,-44.5,37.1C-54.8,28,-67.7,19.8,-73.7,7.9C-79.7,-4.1,-78.7,-19.8,-70.6,-30.1C-62.6,-40.4,-47.5,-45.4,-34.5,-55.5C-21.6,-65.6,-10.8,-80.9,1.3,-82.9C13.4,-85,26.9,-73.9,37.5,-62.7Z" transform="translate(100 100)" />
</svg>
